<svg width="104" height="42" viewBox="0 0 104 42" fill="none" xmlns="http://www.w3.org/2000/svg">
<g clip-path="url(#clip0)">
<path d="M38.2388 11.9826C37.3811 10.9614 36.2857 10.1334 34.986 9.52073C33.6827 8.91176 32.1714 8.59985 30.4894 8.59985H30.4671C28.7924 8.64441 27.296 8.97489 26.0187 9.58385C24.745 10.1891 23.6571 11.0023 22.7845 11.9937C21.9156 12.9814 21.2472 14.1214 20.8016 15.3764C20.3598 16.6204 20.137 17.9274 20.137 19.2642C20.137 20.5861 20.3375 21.8968 20.7311 23.1519C21.1358 24.4404 21.7819 25.6063 22.6582 26.62C23.542 27.6449 24.6708 28.4618 26.0187 29.0522C27.27 29.598 28.7182 29.8728 30.3334 29.8728C30.4522 29.8728 30.5711 29.8728 30.6899 29.8691C32.3311 29.8691 33.8015 29.5572 35.0603 28.9445C36.3191 28.3355 37.3773 27.5186 38.2128 26.5198C39.0371 25.532 39.6721 24.4069 40.0917 23.1742C40.5113 21.9525 40.7229 20.6789 40.7229 19.3904C40.7229 18.0722 40.5224 16.754 40.1288 15.4767C39.7278 14.1734 39.0928 12.9963 38.2388 11.9826ZM30.7233 25.2201C28.8741 25.1459 27.5114 24.5518 26.5571 23.4044C25.5657 22.2124 25.0681 20.9054 25.0272 19.409C25.0272 18.6441 25.1498 17.8977 25.3837 17.1922C25.6176 16.4941 25.963 15.8554 26.4086 15.3022C26.8467 14.7601 27.4074 14.307 28.0832 13.9506C28.7404 13.6052 29.5276 13.4084 30.4114 13.3713C31.3026 13.375 32.0972 13.5347 32.7767 13.8466C33.4636 14.1622 34.0503 14.6004 34.5219 15.1388C34.9972 15.6846 35.3536 16.3196 35.5876 17.0288C35.8252 17.764 35.9478 18.5252 35.9478 19.2939C35.9478 20.0699 35.8364 20.8386 35.6136 21.5775C35.4019 22.2867 35.0677 22.9254 34.6259 23.4749C34.1877 24.0171 33.6604 24.4329 33.0069 24.7523C32.3757 25.0605 31.607 25.2201 30.7233 25.2201Z" fill="#55AD7B"/>
<path d="M55.9137 18.1575C54.9891 17.6488 53.9717 17.2441 52.8912 16.9582C51.9109 16.702 50.964 16.4383 50.084 16.1747C49.2708 15.9333 48.595 15.6697 48.0751 15.3838C47.7929 15.2315 47.741 15.083 47.741 14.8639C47.741 14.8491 47.741 14.8379 47.741 14.8231C47.7187 14.2067 47.9266 13.776 48.4205 13.4381C49.074 12.9888 49.8203 12.7251 50.6892 12.6286C51.3613 12.5692 52.0297 12.6546 52.6721 12.8811C53.2959 13.1039 53.8009 13.4195 54.1722 13.8168C54.6475 14.3478 55.1933 14.6523 55.7912 14.7154C56.3964 14.7822 56.9608 14.6337 57.4213 14.2772C57.852 13.9431 58.1528 13.4789 58.2827 12.9256C58.383 12.506 58.3978 11.8488 57.9077 11.1173C57.904 11.1099 57.9003 11.1062 57.8965 11.0987C57.1873 10.0776 56.1662 9.26443 54.8666 8.68145C53.5855 8.10591 52.2042 7.85341 50.7598 7.94253C50.7524 7.94253 50.7412 7.94253 50.7338 7.94624C49.7498 8.02793 48.7844 8.22473 47.8635 8.53293C46.898 8.85597 46.0217 9.33498 45.268 9.96251C44.4919 10.6049 43.8755 11.3995 43.4374 12.3241C42.9843 13.2784 42.7987 14.3849 42.8878 15.6214C42.9843 16.9099 43.4485 17.9422 44.2728 18.6922C44.9858 19.3383 45.8324 19.8619 46.7904 20.2444C47.6927 20.6045 48.673 20.8979 49.7015 21.117C50.6372 21.3138 51.5098 21.5514 52.2933 21.8188C52.9988 22.0601 53.5818 22.3683 54.0274 22.7359C54.2168 22.8919 54.4693 23.1778 54.4693 23.8499C54.4693 24.3549 54.2762 24.6556 53.8046 24.8896C53.1139 25.2349 52.2896 25.4243 51.3539 25.4577C50.3773 25.4911 49.3859 25.3649 48.4056 25.0752C47.4885 24.8079 46.8052 24.4514 46.3671 24.0133C46.3522 23.9984 46.3374 23.9836 46.3225 23.9724C45.5984 23.33 44.8744 23.2818 44.3991 23.3523C43.779 23.4451 43.2368 23.7422 42.8321 24.2101C42.4422 24.6594 42.212 25.2126 42.1563 25.8476C42.1117 26.3526 42.2009 27.0989 42.8989 27.8007C43.571 28.5099 44.4511 29.0781 45.513 29.4902C46.5193 29.8801 47.6221 30.14 48.7881 30.2626C49.2819 30.3146 49.7832 30.3405 50.2845 30.3405C50.9529 30.3405 51.6287 30.296 52.3008 30.2032C53.5001 30.0398 54.6029 29.7242 55.5795 29.2674C56.6081 28.7884 57.477 28.1201 58.1602 27.2883C58.8917 26.3971 59.2853 25.3129 59.3336 24.0541C59.3781 22.5465 59.0551 21.2952 58.3718 20.3372C57.722 19.4349 56.8977 18.7034 55.9137 18.1575Z" fill="#55AD7B"/>
<path d="M102.975 22.929C102.547 22.5688 102.028 22.3795 101.43 22.372C100.81 22.3646 100.238 22.5911 99.7217 23.0516L99.6809 23.0887C98.6598 24.1172 98.0211 24.8376 96.8143 25.35C95.8712 25.7511 94.5975 25.7696 93.8178 25.7659C93.0046 25.7622 92.3065 25.7139 91.6752 25.4132C91.0217 25.1012 90.4944 24.6965 90.06 24.1655C89.6218 23.6308 89.2839 22.9699 89.0537 22.1901C88.9015 21.6777 88.8049 21.1318 88.7678 20.5637C89.4065 20.586 90.1677 20.6046 91.0663 20.612C92.4699 20.6268 93.9514 20.6083 95.4664 20.5563C96.9777 20.5043 98.3998 20.4226 99.6957 20.3112C101.107 20.1924 102.106 19.9993 102.755 19.7208L102.774 19.7134C103.205 19.5166 103.925 18.9856 103.921 17.6229V17.6043C103.892 16.1005 103.595 14.7191 103.034 13.5049C102.477 12.2944 101.719 11.2473 100.787 10.4007C99.8591 9.55408 98.7712 8.89684 97.5532 8.45126C96.3427 8.00567 95.0877 7.79031 93.814 7.80516C92.2805 7.83487 90.9215 8.1802 89.7741 8.82629C88.6527 9.45754 87.691 10.2856 86.9186 11.2881C86.1611 12.2684 85.5522 13.3898 85.1103 14.6189C84.6759 15.8257 84.3825 17.0844 84.234 18.3618C84.0261 20.1664 84.1374 21.8448 84.5719 23.3449C85.0063 24.8562 85.697 26.1669 86.6179 27.2363C87.5499 28.3169 88.6935 29.1412 90.0154 29.687C90.7766 30.0027 91.4524 30.1178 92.2916 30.2143C92.908 30.2849 93.6061 30.3331 94.2596 30.3443C95.9677 30.3703 97.4158 29.9878 98.8232 29.4123C100.36 28.7847 101.786 27.6893 103.298 26.1409L103.364 26.0741L103.416 25.9961C103.881 25.2869 103.869 24.6557 103.777 24.2509C103.661 23.7274 103.39 23.2818 102.975 22.929ZM89.4585 16.0299C89.5439 15.7811 89.6404 15.536 89.7444 15.2984C89.9746 14.7786 90.2754 14.3107 90.6318 13.9171C90.9846 13.5235 91.4116 13.1893 91.8943 12.9182C92.3436 12.6657 92.882 12.5098 93.491 12.4578C94.3413 12.3947 95.1248 12.4689 95.8155 12.6732C96.5024 12.8774 97.1002 13.1856 97.5941 13.5792C98.0954 13.9802 98.4778 14.4407 98.7712 14.9828C98.9011 15.2241 99.0088 15.4729 99.0905 15.7254C97.4158 15.8814 95.7709 16.0076 94.1928 16.1005C92.6778 16.1933 91.0886 16.1673 89.4585 16.0299Z" fill="#55AD7B"/>
<path d="M81.7277 8.94507L81.724 8.87823C81.6683 8.15787 81.4343 7.58604 81.0296 7.16645C81.0222 7.15902 81.0148 7.14788 81.0036 7.14045C80.9925 7.12931 80.9813 7.11446 80.9665 7.10332C80.9479 7.08847 80.9294 7.07362 80.9145 7.05505C80.9034 7.04391 80.8885 7.03277 80.8774 7.02163L80.8737 7.01792C80.4503 6.65402 79.9565 6.46094 79.4292 6.46094C79.4181 6.46094 79.4107 6.46094 79.3995 6.46094C79.3884 6.46094 79.3772 6.46094 79.3661 6.46094C78.8054 6.46094 78.293 6.65031 77.8511 7.02534C77.5095 7.31497 77.101 7.87195 77.101 8.88194L77.1122 10.3746C76.5886 10.0256 76.0316 9.72484 75.4375 9.47234C74.2159 8.95249 72.764 8.71114 71.1265 8.75198C69.4778 8.75198 68.0037 9.06389 66.7375 9.67285C65.475 10.2818 64.413 11.095 63.5701 12.0939C62.7421 13.0816 62.1071 14.203 61.6801 15.432C61.2568 16.6537 61.0452 17.9236 61.0452 19.2158C61.0452 20.534 61.2457 21.8521 61.643 23.1258C62.0477 24.4291 62.6864 25.6025 63.5442 26.6162C64.4056 27.6373 65.5047 28.4654 66.8118 29.0743C68.1188 29.6833 69.6375 29.9915 71.327 29.9915C72.8049 29.9915 74.1639 29.7204 75.3633 29.1894C75.9462 28.9332 76.4958 28.6362 77.0119 28.302L77.2496 28.1869L77.3387 39.6978C77.3387 40.4404 77.632 41.0494 78.189 41.4653C78.6606 41.818 79.1767 41.9963 79.7226 41.9963C80.2647 41.9963 80.7808 41.818 81.2561 41.4653C81.8094 41.0494 82.1064 40.4404 82.1027 39.6866L81.7091 13.7611C81.7203 12.3278 81.7277 10.7126 81.7277 8.94507ZM76.4661 21.4066C76.2322 22.1046 75.8831 22.7396 75.4338 23.2892C74.9919 23.8313 74.4275 24.2843 73.748 24.637C73.0834 24.9824 72.2924 25.1792 71.3976 25.2163C70.4618 25.2126 69.6486 25.0566 68.9877 24.7447C68.3119 24.4291 67.7289 23.9947 67.2536 23.4488C66.7746 22.9067 66.4182 22.2643 66.1879 21.5402C65.9466 20.7902 65.8241 20.0215 65.8241 19.2492C65.8241 18.4769 65.9355 17.7268 66.1582 17.0138C66.3736 16.3232 66.7078 15.6994 67.1534 15.1498C67.5878 14.6151 68.1374 14.1881 68.7835 13.8762C69.4259 13.568 70.2019 13.4083 71.0931 13.4083C72.9534 13.4826 74.3161 14.0767 75.2556 15.2129C76.2359 16.4049 76.752 17.7119 76.83 19.2084C76.8188 19.9658 76.7 20.7048 76.4661 21.4066Z" fill="#55AD7B"/>
<path d="M28.6364 5.06852C29.4719 6.11193 30.5821 6.70604 31.8743 6.98453C32.2605 7.06622 32.591 6.87685 32.6875 6.49067C32.992 5.2616 32.9586 4.0511 32.4387 2.88144C31.8966 1.65609 30.9275 0.880028 29.717 0.367607C29.5833 0.311909 29.4496 0.245071 29.3196 0.18566C29.0486 0.122536 28.7775 0.0631244 28.5027 0C28.0869 0.0631244 27.8678 0.311909 27.7861 0.724074C27.6264 1.52984 27.6042 2.33189 27.7601 3.13765C27.8975 3.84687 28.1834 4.5004 28.6364 5.06852Z" fill="#55AD7B"/>
<path d="M34.1096 7.83124C35.4278 7.91664 36.6569 7.64929 37.7486 6.87695C38.3427 6.45736 38.7957 5.9078 39.1224 5.26171C39.4938 4.53021 39.6906 3.75043 39.7574 2.93353C39.7908 2.51765 39.6497 2.21688 39.2673 2.04236C38.9888 2.02751 38.7066 2.01266 38.4281 1.9978C38.2833 2.02008 38.1384 2.04607 37.9936 2.06464C36.6903 2.22431 35.5466 2.70702 34.6889 3.73558C33.872 4.71958 33.5044 5.87438 33.4598 7.14058C33.4487 7.53047 33.716 7.80525 34.1096 7.83124Z" fill="#55AD7B"/>
<path d="M19.2271 9.17908C18.9226 8.57011 18.4733 8.15052 17.8941 7.92402C17.2814 7.68637 16.6316 7.73093 16.0152 8.05769C15.4137 8.37703 14.9681 8.97857 14.697 9.84745L10.5976 22.5392C8.89699 17.8717 6.7062 13.3267 4.40401 8.97857C2.97443 6.27164 -1.13237 8.67037 0.297215 11.3773C3.17494 16.8134 5.83359 22.6877 7.50825 28.6214C7.52681 28.6919 7.55652 28.7551 7.58994 28.8145C7.86472 29.4197 8.33258 29.8467 8.9564 30.0547C9.34257 30.1847 9.74731 30.2478 10.1669 30.2478C10.3414 30.2478 10.5197 30.2366 10.7016 30.2144C11.2957 30.1401 11.8416 29.9619 12.3243 29.6834C12.8961 29.3529 13.2971 28.8776 13.4865 28.3095L19.3385 11.2696L19.3459 11.2436C19.5761 10.4936 19.5353 9.79918 19.2271 9.17908Z" fill="#55AD7B"/>
</g>
<defs>
<clipPath id="clip0">
<rect width="103.929" height="42" fill="white"/>
</clipPath>
</defs>
</svg>
